<?xml version="1.0" encoding="utf-8"?>
<!-- Generator: Adobe Illustrator 24.1.1, SVG Export Plug-In . SVG Version: 6.00 Build 0)  -->
<svg version="1.1" id="Layer_1" xmlns="http://www.w3.org/2000/svg" xmlns:xlink="http://www.w3.org/1999/xlink" x="0px" y="0px"
	 viewBox="0 0 47 55" style="enable-background:new 0 0 47 55;" xml:space="preserve">
<style type="text/css">
	.st0{clip-path:url(#SVGID_2_);}
	.st1{fill:#302F38;}
</style>
<g>
	<g>
		<defs>
			<rect id="SVGID_1_" y="0" width="47" height="55"/>
		</defs>
		<clipPath id="SVGID_2_">
			<use xlink:href="#SVGID_1_"  style="overflow:visible;"/>
		</clipPath>
		<g class="st0">
			<path class="st1" d="M3.9,52.2L3.9,52.2c0.3-0.3,0.6-0.7,0.6-1.2c0-0.9-0.6-1.5-1.7-1.5H0.2c-0.1,0-0.2,0.1-0.2,0.2v5.1
				C0,54.9,0.1,55,0.2,55H3c1.1,0,1.7-0.6,1.7-1.5C4.8,52.7,4.4,52.4,3.9,52.2z M1.4,50.9c0-0.1,0-0.1,0.1-0.1h1.1
				c0.3,0,0.5,0.2,0.5,0.4c0,0.3-0.1,0.4-0.5,0.4H1.5c-0.1,0-0.1,0-0.1-0.1V50.9z M2.8,53.6H1.5c-0.1,0-0.1,0-0.1-0.1v-0.7
				c0-0.1,0-0.1,0.1-0.1h1.2c0.4,0,0.5,0.2,0.5,0.5C3.3,53.4,3.2,53.6,2.8,53.6z"/>
			<path class="st1" d="M9.5,53.3c0,0,0-0.1,0-0.2c0.6-0.4,1-1,1-1.7c0-1.1-0.6-2-2-2H6c-0.1,0-0.2,0.1-0.2,0.2v5.1
				c0,0.1,0.1,0.2,0.2,0.2h1c0.1,0,0.2-0.1,0.2-0.2v-1.1c0-0.1,0-0.1,0.1-0.1h0.4c0.1,0,0.2,0,0.2,0.1l0.8,1.2
				c0,0.1,0.1,0.1,0.3,0.1h1.3c0.1,0,0.1-0.1,0.1-0.1L9.5,53.3z M8.3,52.2h-1c-0.1,0-0.1,0-0.1-0.1V51c0-0.1,0-0.1,0.1-0.1h1.1
				c0.5-0.2,0.7,0.1,0.7,0.6C9.1,51.8,8.9,52.2,8.3,52.2z"/>
			<path class="st1" d="M14.7,49.6c0-0.1-0.1-0.1-0.2-0.1h-1.1c-0.1,0-0.2,0-0.2,0.1L11,54.7c0,0.1,0,0.1,0.1,0.1h1.2
				c0.1,0,0.2,0,0.2-0.1l0.2-0.5c0-0.1,0.1-0.1,0.2-0.1h1.8c0.1,0,0.1,0,0.2,0.1l0.2,0.5c0,0.1,0.1,0.1,0.2,0.1h1.2
				c0.1,0,0.1-0.1,0.1-0.1L14.7,49.6z M14.4,52.8h-0.9c-0.1,0-0.1-0.1-0.1-0.1l0.5-1.3h0.1l0.5,1.3L14.4,52.8z"/>
			<path class="st1" d="M18.8,49.4h-1.1c-0.1,0-0.2,0.1-0.2,0.2v5.1c0,0.1,0.1,0.2,0.2,0.2h1.1c0.1,0,0.2-0.1,0.2-0.2v-5.1
				C18.9,49.5,18.9,49.4,18.8,49.4z"/>
			<path class="st1" d="M25.1,49.4H24c-0.1,0-0.2,0.1-0.2,0.2v2.7c0,0,0,0.1-0.1,0l-2.3-2.8c0-0.1-0.2-0.1-0.3-0.1h-0.8
				c-0.1,0-0.2,0.1-0.2,0.2v5.1c0,0.1,0.1,0.2,0.2,0.2h1.1c0.1,0,0.2-0.1,0.2-0.2V52c0,0,0-0.1,0.1,0l2.3,2.8c0,0.1,0.2,0.1,0.3,0.1
				h0.8c0.1,0,0.2-0.1,0.2-0.2v-5.1C25.2,49.5,25.2,49.4,25.1,49.4z"/>
			<path class="st1" d="M28.6,51.5c-0.6-0.2-0.9-0.3-0.9-0.6c0-0.2,0.2-0.4,0.6-0.4s0.7,0.2,0.8,0.5c0,0.1,0.1,0.2,0.2,0.2h1
				c0.1,0,0.2-0.1,0.2-0.2c-0.1-1-1-1.7-2.2-1.7S26.2,50,26.2,51c0,1.1,1.1,1.5,2,1.8c0.6,0.2,0.9,0.4,0.9,0.6
				c0,0.1-0.2,0.3-0.7,0.3s-0.8-0.2-0.9-0.4c-0.1-0.1-0.1-0.2-0.3-0.2h-0.9c-0.1,0-0.2,0.1-0.2,0.2c0.1,1,1.1,1.5,2.3,1.5
				c1.2,0,2.2-0.6,2.2-1.6C30.6,52.2,29.4,51.7,28.6,51.5z"/>
			<path class="st1" d="M36,49.4h-4.5c-0.1,0-0.2,0.1-0.2,0.2v1c0,0.1,0.1,0.2,0.2,0.2h1.4c0.1,0,0.1,0,0.1,0.1v3.8
				c0,0.1,0.1,0.2,0.2,0.2h1.1c0.1,0,0.2-0.1,0.2-0.2V51c0-0.1,0-0.1,0.1-0.1H36c0.1,0,0.2-0.1,0.2-0.2v-1
				C36.1,49.5,36.1,49.4,36,49.4z"/>
			<path class="st1" d="M41,49.4h-3.9c-0.1,0-0.2,0.1-0.2,0.2v5.1c0,0.1,0.1,0.2,0.2,0.2h3.8c0.1,0,0.2-0.1,0.2-0.2v-1
				c0-0.1-0.1-0.2-0.2-0.2h-2.4c-0.1,0-0.1,0-0.1-0.1V53c0-0.1,0-0.1,0.1-0.1h2c0.1,0,0.2-0.1,0.2-0.2v-0.9c0-0.1-0.1-0.2-0.2-0.2
				h-2c-0.1,0-0.1,0-0.1-0.1V51c0-0.1,0-0.1,0.1-0.1H41c0.1,0,0.2-0.1,0.2-0.2v-1C41.2,49.5,41.1,49.4,41,49.4z"/>
			<path class="st1" d="M47,54.7l-1-1.4c0,0,0-0.1,0-0.2c0.6-0.4,1-1,1-1.7c0-1.1-0.6-2-2-2h-2.5c-0.1,0-0.2,0.1-0.2,0.2v5.1
				c0,0.1,0.1,0.2,0.2,0.2h1.1c0.1,0,0.2-0.1,0.2-0.2v-1.1c0-0.1,0-0.1,0.1-0.1h0.4c0.1,0,0.2,0,0.2,0.1l0.8,1.2
				c0,0.1,0.1,0.1,0.3,0.1h1.3C47,54.9,47,54.8,47,54.7z M44.9,52.2h-1.1c-0.1,0-0.1,0-0.1-0.1V51c0-0.1,0-0.1,0.1-0.1h1.1
				c0.6,0,0.8,0.3,0.8,0.7C45.6,51.8,45.4,52.2,44.9,52.2z"/>
			<path class="st1" d="M27.7,26.9L23,29.6c-0.5,0.3-0.6,0.8-0.4,1.3c0.2,0.5,0.9,0.6,1.3,0.4l4.1-2.4l4.1,2.4
				c0.1,0.1,0.3,0.1,0.5,0.1c0.3,0,0.6-0.2,0.8-0.5c0.3-0.5,0.1-1.1-0.4-1.3L28.6,27C28.4,26.7,28,26.8,27.7,26.9z"/>
			<path class="st1" d="M43.2,25.6v-5.3c0-0.1,0-0.2,0-0.3c0-0.1,0-0.2,0-0.3v-5.3c0-0.3-0.2-0.6-0.5-0.8l-4.1-2.4V6.3
				c0-0.3-0.2-0.6-0.5-0.8L33.6,3c0,0-0.1-0.1-0.2-0.2l-4.6-2.7c-0.3-0.2-0.6-0.2-1,0l-4.2,2.4l-4.2-2.4c-0.3-0.2-0.6-0.2-1,0
				l-4.6,2.7c-0.1,0-0.2,0.1-0.3,0.2L8.8,5.6C8.6,5.8,8.4,6.1,8.4,6.4v4.7l-4.1,2.4c-0.3,0.2-0.5,0.5-0.5,0.8v5.3c0,0.1,0,0.2,0,0.3
				c0,0.1-0.1,0.2-0.1,0.3v5.3c0,0.3,0.2,0.6,0.5,0.8l4.1,2.4v4.8c0,0.3,0.2,0.6,0.5,0.8l4.4,2.5c0,0,0.1,0.1,0.2,0.2l4.6,2.7
				c0.1,0.1,0.3,0.1,0.5,0.1c0.2,0,0.3,0,0.5-0.1l4.2-2.4l4.2,2.4c0.1,0.1,0.3,0.1,0.5,0.1c0.2,0,0.3,0,0.5-0.1l4.6-2.7
				c0.1,0,0.2-0.1,0.3-0.2l4.5-2.6c0.3-0.2,0.5-0.5,0.5-0.8v-4.8l4.1-2.4C43,26.3,43.2,26,43.2,25.6z M33.4,24.8
				c-0.5-0.2-1.1-0.1-1.3,0.4c-0.1,0.2-0.1,0.5-0.1,0.7s0.2,0.5,0.5,0.6l4.1,2.4v4.2l-3.7,2.1l-4.1-2.4c-0.5-0.3-1.1-0.1-1.3,0.4
				c-0.1,0.2-0.2,0.5-0.1,0.7c0,0.2,0.2,0.5,0.5,0.6l3.3,1.9l-3,1.6L24,35.6c-0.2-0.1-0.4-0.1-0.6-0.1c-0.2,0-0.4,0-0.6,0.1l-4,2.4
				L15,35.9V31c0-0.5-0.4-1-1-1c-0.5,0-1,0.4-1,1v3.6L10.2,33v-4.2l3.7-2.1l3.7,2.1v4.8c0,0.5,0.4,1,1,1c0.5,0,1-0.4,1-1v-5.2
				l3.3-1.9c0.2-0.1,0.4-0.3,0.5-0.6c0-0.2,0-0.5-0.1-0.7c-0.2-0.5-0.9-0.6-1.3-0.4L18.3,27L15,25.1v-4.4l3.4-2
				c0.2-0.1,0.4-0.3,0.5-0.6c0-0.2,0-0.5-0.1-0.7c-0.2-0.4-0.9-0.6-1.3-0.4l-3.5,2l-4-2.3c-0.5-0.3-1.1-0.1-1.3,0.4
				c-0.3,0.5-0.1,1.1,0.4,1.3l4.1,2.4v4.4l-3.6,2.1l-3.7-2.1v-3.8L9,23.2c0.1,0.1,0.3,0.1,0.5,0.1c0.3,0,0.6-0.2,0.8-0.5
				c0.3-0.5,0.1-1.1-0.4-1.3l-4.1-2.4v-4.2l3.6-2.1l4.2,2.4c0.1,0.1,0.3,0.1,0.5,0.1c0.3,0,0.6-0.2,0.8-0.5c0.3-0.5,0.1-1.1-0.4-1.3
				l-4.1-2.4V7l3.7-2.1l4,2.4c0.5,0.3,1.1,0.1,1.3-0.4c0.1-0.2,0.2-0.5,0.1-0.7c0-0.2-0.2-0.5-0.5-0.6l-3.3-1.9l3-1.7l4.1,2.4
				c0.1,0.1,0.3,0.1,0.5,0.1c0,0,0,0,0.1,0c0.2,0,0.4,0,0.6-0.1l4-2.4l3.7,2.1v4.8c0,0.5,0.4,1,1,1c0.5,0,1-0.4,1-1V5.3l2.7,1.6v4.2
				L33,13.2l-3.7-2.1V6.3c0-0.5-0.4-1-1-1c-0.5,0-1,0.4-1,1v5.2l-3.3,1.9c-0.2,0.1-0.4,0.3-0.5,0.6c0,0.2,0,0.5,0.1,0.7
				c0.2,0.3,0.5,0.5,0.8,0.5c0.2,0,0.3,0,0.5-0.1l3.7-2.1l3.3,1.9v4.5l-3.4,2c-0.5,0.3-0.6,0.8-0.4,1.3c0.2,0.3,0.5,0.5,0.8,0.5
				c0.2,0,0.3,0,0.5-0.1l3.5-2l4,2.3c0.1,0.1,0.3,0.1,0.5,0.1c0.3,0,0.6-0.2,0.8-0.5c0.3-0.5,0.1-1.1-0.4-1.3l-4.1-2.4v-4.4l3.6-2.1
				l3.7,2.1v3.8l-3.2-1.8c-0.5-0.3-1.1-0.1-1.3,0.4c-0.3,0.5-0.1,1.1,0.4,1.3L41,21v4.2l-3.6,2.1L33.4,24.8z"/>
			<path class="st1" d="M26.1,19.2c0-0.2,0-0.5-0.1-0.7c-0.2-0.5-0.9-0.6-1.3-0.4l-3.8,2.2c-0.2,0.1-0.4,0.3-0.5,0.6
				c0,0.2,0,0.5,0.1,0.7c0.2,0.3,0.5,0.5,0.8,0.5c0.2,0,0.3,0,0.5-0.1l3.8-2.2C25.8,19.6,26,19.4,26.1,19.2z"/>
			<path class="st1" d="M24.2,9.8c0-0.2,0-0.5-0.1-0.7c-0.2-0.4-0.9-0.6-1.3-0.4l-4.1,2.4l-4.1-2.4c-0.5-0.3-1.1-0.1-1.3,0.4
				c-0.3,0.5-0.1,1.1,0.4,1.3l4.6,2.6c0.1,0.1,0.3,0.1,0.5,0.1c0.2,0,0.3,0,0.5-0.1l4.6-2.7C24.1,10.3,24.2,10.1,24.2,9.8z"/>
		</g>
	</g>
</g>
</svg>
