<svg width="100" height="26" viewBox="0 0 100 26" fill="none" xmlns="http://www.w3.org/2000/svg">
<path d="M5.28742 19.8981H14.2857V24.6941H0.457489V0.535889H5.28742V19.8981Z" fill="#071923"/>
<path d="M30.3503 0.535889L41.7704 24.7213H36.4218L29.5221 10.024L22.0391 24.7213H16.619L28.9354 0.535889H30.3503Z" fill="#6630D8"/>
<path d="M44.869 24.6855V0.535889H49.699V24.6855H44.869Z" fill="#071923"/>
<path d="M59.7534 13.6464L57.8826 15.5427V24.6855H53.0612V0.535889H57.8911V8.33351L64.966 0.535889H71.4881L63.0306 9.98827L71.6905 24.6855H65.9303L59.7534 13.6464Z" fill="#071923"/>
<path d="M87.6956 0.535889L99.1157 24.7213H93.7687L86.8691 10.024L79.3861 24.7213H73.9643L86.2823 0.535889H87.6956Z" fill="#071923"/>
</svg>
